<svg width="85" height="85" viewBox="0 0 85 85" fill="none" xmlns="http://www.w3.org/2000/svg">
<circle cx="42.5" cy="42.5" r="42.5" fill="#E9E9E9"/>
<mask id="mask0_555_12507" style="mask-type:alpha" maskUnits="userSpaceOnUse" x="2" y="5" width="81" height="80">
<circle cx="42.5" cy="45.1562" r="39.8438" fill="#F3F3F3"/>
</mask>
<g mask="url(#mask0_555_12507)">
<path d="M39.8304 70.0347L70.102 95.7293L86.5454 76.3644L93.5986 85.1565L74.1781 112.966C72.5365 114.927 69.6151 115.108 67.7509 113.355L39.5105 96.7587L39.8304 70.0347Z" fill="#4F4D4B"/>
<path d="M42.7619 62.6639C41.1342 62.4691 39.4926 61.5927 38.2823 60.7858C37.0859 59.9929 36.4599 58.5739 36.6268 57.141L39.9099 31.043L51.3314 32.4202L48.1039 58.1983C47.7422 61.1476 45.3773 62.97 42.7619 62.6639Z" fill="#FBE6D6"/>
<path d="M49.0079 50.9496L45.057 43.7295C45.057 43.7295 41.287 51.0191 48.5906 54.2466L49.0079 50.9496Z" fill="#F2C09E"/>
<path d="M61.4456 33.6297C60.5135 41.4063 53.4464 46.957 45.6698 46.011C37.8933 45.0789 32.3426 38.0119 33.2886 30.2353C34.2207 22.4588 41.2877 16.9081 49.0643 17.854C56.8408 18.7861 62.3777 25.8532 61.4456 33.6297Z" fill="#FBE6D6"/>
<path d="M50.0088 51.1433C46.3222 50.6981 43.6791 47.3455 44.1242 43.645L45.2928 34.0043L61.4441 33.6147L60.3034 43.0607C59.6913 48.1384 55.0865 51.7554 50.0088 51.1433Z" fill="#FBE6D6"/>
<path d="M60.6494 36.7295L63.1813 41.6263C63.5291 42.4193 62.8474 43.254 61.9571 43.1427L58.3123 43.3931L60.6494 36.7295Z" fill="#FBE6D6"/>
<path d="M47.0533 38.2014L50.1557 37.951L51.3521 32.4142C51.3521 32.4142 64.0672 34.6679 65.9731 28.6442C65.9731 28.6442 58.6278 8.38898 40.8488 16.2907C27.6607 22.1475 31.4446 36.6433 35.785 42.0271C37.2318 43.8217 37.9135 46.1449 37.7187 48.4403C37.6909 48.7186 37.6631 49.0107 37.6214 49.3168L42.8103 37.5198L47.0533 38.2014Z" fill="#81542B"/>
<path d="M42.9314 32.3049C44.9069 31.4563 47.2023 32.3744 48.0509 34.3637C48.8995 36.3392 47.9813 38.6346 45.9919 39.4832C44.0165 40.3318 41.7211 39.4137 40.8725 37.4243C40.0239 35.435 40.9421 33.1535 42.9314 32.3049Z" fill="#FBE6D6"/>
<path d="M43.679 29.7737C43.679 29.7737 40.5071 12.8712 26.1643 17.4898C10.3608 22.5814 17.3444 40.8195 16.7184 44.8121C15.995 49.4864 13.5465 54.3554 6.77161 55.2736C6.77161 55.2736 25.7052 59.5305 26.7764 46.2728C27.6807 35.1158 32.9671 30.5806 38.9908 34.8793L43.679 29.7737Z" fill="#81542B"/>
<path d="M36.6432 57.1384C36.6432 57.1384 33.374 55.8724 31.7185 73.6236C30.0631 91.3747 28.964 173.982 28.964 173.982L80.5064 165.203C80.5064 165.203 71.1577 91.333 48.0784 58.1817L36.6432 57.1384Z" fill="#383635"/>
<path d="M51.5443 84.6161V162.173H39.9281L35.8242 80.8461C35.6294 77.1734 37.1736 73.5564 40.0811 71.4141C43.392 68.9656 47.8577 68.7569 50.9878 80.4426C51.3634 81.792 51.5443 83.1971 51.5443 84.6161Z" fill="#4F4D4B"/>
</g>
</svg>
